{"title":"Marmaduke.2010.R5.Line.XviD-TANK","uid":5747912,"size":1421217333,"categoryP":"video","categoryS":"movies","magnet":"?xt=urn:btih:63360d9774656b7fbcfca3d2611567bea6301e73&amp;dn=Marmaduke.2010.R5.Line.XviD-TANK&amp;tr=udp%3A%2F%2Ftracker.openbittorrent.com%3A80&amp;tr=udp%3A%2F%2Fopen.demonii.com%3A1337&amp;tr=udp%3A%2F%2Ftracker.coppersurfer.tk%3A6969&amp;tr=udp%3A%2F%2Fexodus.desync.com%3A6969","seeders":0,"leechers":0,"uploader":"TvTeam","files":5,"time":1281293172,"description":". \n  &lt;a href=&quot;\nhttp://www.torrentday.com/&quot; rel=&quot;nofollow&quot; target=&quot;_NEW&quot;&gt;\nhttp://www.torrentday.com/&lt;/a&gt;        :     The Hottest Private Tracker On The Net!!!\n\n\n               www . TorrentDay . Com \n(((((((((((((= Enjoy No RAR releases =))))))))))))))))))))\n\n\n...................................NFO:....................................\n\n.Marmaduke.2010.R5.Line.XviD-TANK\n\n[img]http://trackeraccess.org/covers/pics/b797251bd331446e9262c91ee044127b.png[/img]\n\nPlot:\nMarmaduke, the world's most lovable Great Dane, leaps from comic strip fame (appearing in 600 newspapers in over 20 countries) to big screen stardom in this family comedy event. A suburban family moves to a new neighborhood in Orange County, California with their large yet lovable Great Dane, who has a tendency to wreak havoc in his own oblivious way. But its not all living large for the Duke, who finds that fitting in with his new four-legged friends - and a potential romantic interest - isn't always easy for a super-sized teenage dog. Owen Wilson gives the beloved Great Dane his voice in the film, which also features the voices of Fergie, George Lopez, Emma Stone and Kiefer Sutherland. \n\n &lt;a href=&quot;\nhttp://www.imdb.com/title/tt1392197/&quot; rel=&quot;nofollow&quot; target=&quot;_NEW&quot;&gt;\nhttp://www.imdb.com/title/tt1392197/&lt;/a&gt;\n\nGeneral\nComplete name                    : Marmaduke.2010.R5.Line.XviD-TANK.avi\nFormat                           : AVI\nFormat/Info                      : Audio Video Interleave\nFile size                        : 1.31 GiB\nDuration                         : 1h 22mn\nOverall bit rate                 : 2 254 Kbps\nWriting library                  : VirtualDub build 32661/release\n\nVideo\nID                               : 0\nFormat                           : MPEG-4 Visual\nFormat profile                   : AdvancedSimple@L5\nFormat settings, BVOP            : No\nFormat settings, QPel            : No\nFormat settings, GMC             : No warppoints\nFormat settings, Matrix          : Custom\nCodec ID                         : XVID\nCodec ID/Hint                    : XviD\nDuration                         : 1h 22mn\nBit rate                         : 2 116 Kbps\nWidth                            : 720 pixels\nHeight                           : 304 pixels\nDisplay aspect ratio             : 2.35:1\nFrame rate                       : 24.000 fps\nResolution                       : 24 bits\nColorimetry                      : 4:2:0\nScan type                        : Progressive\nBits/(Pixel*Frame)               : 0.403\nStream size                      : 1.23 GiB (94%)\nWriting library                  : XviD 1.2.1 (UTC 2008-12-04)\n\nAudio\nID                               : 1\nFormat                           : MPEG Audio\nFormat version                   : Version 1\nFormat profile                   : Layer 3\nCodec ID                         : 55\nCodec ID/Hint                    : MP3\nDuration                         : 1h 22mn\nBit rate mode                    : Constant\nBit rate                         : 128 Kbps\nChannel(s)                       : 2 channels\nSampling rate                    : 48.0 KHz\nResolution                       : 16 bits\nStream size                      : 76.0 MiB (6%)\nAlignment                        : Split accross interleaves\nInterleave, duration             : 42 ms (1.00 video frame)\nInterleave, preload duration     : 500 ms\n\nNotes: BIG Thanks to LU for syncing the Line audio for me.\n\nThanks to cherrytorrents for the server space\n\nScreens:\n\nEnjoy","torrent":{"xt":"urn:btih:63360d9774656b7fbcfca3d2611567bea6301e73","amp;dn":"Marmaduke.2010.R5.Line.XviD-TANK","amp;tr":["udp%3A%2F%2Ftracker.openbittorrent.com%3A80","udp%3A%2F%2Fopen.demonii.com%3A1337","udp%3A%2F%2Ftracker.coppersurfer.tk%3A6969","udp%3A%2F%2Fexodus.desync.com%3A6969"],"infoHash":"63360d9774656b7fbcfca3d2611567bea6301e73","infoHashBuffer":{"type":"Buffer","data":[99,54,13,151,116,101,107,127,188,252,163,210,97,21,103,190,166,48,30,115]},"announce":[],"urlList":[]}}